<?xml version="1.0" encoding="UTF-8"?>
<svg xmlns="http://www.w3.org/2000/svg" xmlns:xlink="http://www.w3.org/1999/xlink" width="160px" height="52px" viewBox="0 0 161 52" version="1.1">
<g id="surface1">
<path style=" stroke:none;fill-rule:nonzero;fill:rgb(0%,0%,0%);fill-opacity:1;" d="M 57.476562 25.871094 C 57.476562 38.417969 57.507812 43.527344 57.542969 37.285156 C 57.605469 31.011719 57.605469 20.730469 57.542969 14.488281 C 57.507812 8.214844 57.476562 13.324219 57.476562 25.871094 Z M 57.476562 25.871094 "/>
<path style=" stroke:none;fill-rule:nonzero;fill:rgb(0%,0%,0%);fill-opacity:1;" d="M 34.808594 6.660156 C 33.488281 8.34375 33.359375 10.800781 34.484375 12.160156 C 34.777344 12.515625 34.742188 12.613281 34.324219 12.613281 C 33.390625 12.613281 31.941406 13.550781 31.074219 14.714844 C 29.398438 16.878906 30.234375 20.632812 32.617188 21.894531 C 34.132812 22.667969 36.355469 22.605469 37.769531 21.699219 C 39.316406 20.761719 39.992188 19.402344 39.992188 17.398438 C 39.960938 15.910156 39.800781 15.523438 38.480469 13.710938 C 38.027344 13.066406 39.21875 11.640625 40.992188 10.671875 C 43.277344 9.441406 42.824219 7.792969 40.476562 8.667969 C 39.542969 9.023438 39.414062 8.988281 38.542969 7.921875 C 37.769531 6.953125 36.160156 5.820312 35.613281 5.820312 C 35.546875 5.820312 35.164062 6.207031 34.808594 6.660156 Z M 37.03125 9.085938 C 37.480469 9.863281 37.191406 11.414062 36.644531 11.253906 C 35.933594 10.996094 35.484375 9.894531 35.773438 9.121094 C 36.128906 8.214844 36.578125 8.214844 37.03125 9.085938 Z M 36.484375 14.941406 C 37.546875 15.488281 37.964844 16.203125 37.996094 17.398438 C 37.996094 18.886719 37.480469 19.695312 36.191406 20.242188 C 35.257812 20.632812 34.9375 20.632812 34.003906 20.242188 C 32.714844 19.695312 32.199219 18.886719 32.199219 17.367188 C 32.199219 15.230469 34.550781 13.90625 36.484375 14.941406 Z M 36.484375 14.941406 "/>
<path style=" stroke:none;fill-rule:nonzero;fill:rgb(0%,0%,0%);fill-opacity:1;" d="M 33.328125 16.039062 C 32.585938 16.785156 32.8125 18.238281 33.679688 18.367188 C 34.195312 18.433594 34.519531 18.207031 34.871094 17.460938 C 35.164062 16.914062 35.292969 16.234375 35.195312 15.976562 C 34.96875 15.359375 33.972656 15.394531 33.328125 16.039062 Z M 33.328125 16.039062 "/>
<path style=" stroke:none;fill-rule:nonzero;fill:rgb(0%,0%,0%);fill-opacity:1;" d="M 41.121094 15.75 C 40.570312 16.265625 40.992188 17.140625 42.117188 17.820312 C 44.660156 19.339844 46.078125 21.214844 46.527344 23.703125 L 46.753906 24.902344 L 42.246094 24.902344 C 36.320312 24.902344 36.257812 24.933594 36.128906 29.234375 C 36 32.566406 35.613281 33.4375 34.648438 32.5 C 34.261719 32.113281 34.132812 31.335938 34.132812 29.621094 C 34.132812 27.777344 34.003906 27.164062 33.585938 26.777344 C 32.652344 25.96875 31.878906 25.839844 30.945312 26.355469 C 29.914062 26.875 29.625 27.421875 29.625 28.75 C 29.625 29.652344 28.785156 30.722656 28.078125 30.722656 C 27.144531 30.722656 26.402344 29.429688 26.402344 27.875 C 26.402344 25.386719 26.019531 25.09375 22.316406 24.902344 L 19.160156 24.738281 L 24.214844 22.152344 C 27.015625 20.730469 29.367188 19.402344 29.429688 19.175781 C 29.527344 18.949219 29.367188 18.5625 29.109375 18.269531 C 28.691406 17.851562 27.820312 18.207031 21.21875 21.503906 L 13.847656 25.222656 L 13.910156 33.050781 L 14.007812 40.875 L 14.8125 41.296875 C 15.972656 41.878906 46.496094 41.878906 47.65625 41.296875 L 48.460938 40.875 L 48.558594 32.339844 C 48.652344 22.765625 48.460938 21.472656 46.59375 19.015625 C 46.015625 18.238281 44.757812 17.140625 43.792969 16.558594 C 42.019531 15.523438 41.503906 15.359375 41.121094 15.75 Z M 24.472656 28.359375 C 24.472656 31.175781 26.339844 32.984375 28.785156 32.53125 C 30.269531 32.242188 31.554688 30.722656 31.554688 29.234375 C 31.554688 28.621094 31.71875 28.132812 31.878906 28.132812 C 32.070312 28.132812 32.199219 28.976562 32.199219 30.042969 C 32.199219 31.078125 32.359375 32.371094 32.554688 32.953125 C 33.230469 34.894531 35.839844 35.441406 37.222656 33.890625 C 37.707031 33.40625 37.867188 32.566406 37.996094 30.140625 L 38.15625 27.003906 L 42.441406 26.90625 L 46.691406 26.808594 L 46.691406 35.570312 L 15.777344 35.570312 L 15.777344 26.839844 L 24.472656 26.839844 Z M 46.625 38.546875 L 46.527344 39.613281 L 31.167969 39.710938 L 15.777344 39.777344 L 15.777344 37.511719 L 46.722656 37.511719 Z M 46.625 38.546875 "/>
<path style=" stroke:none;fill-rule:nonzero;fill:rgb(0%,0%,0%);fill-opacity:1;" d="M 72.0625 16.363281 C 71.902344 16.492188 71.804688 18.820312 71.804688 21.570312 L 71.804688 26.515625 L 73.738281 26.515625 C 77.570312 26.515625 78.890625 25.222656 78.890625 21.40625 C 78.890625 17.625 77.890625 16.492188 74.414062 16.234375 C 73.253906 16.167969 72.191406 16.203125 72.0625 16.363281 Z M 76.699219 17.820312 C 77.28125 18.140625 77.925781 19.984375 77.925781 21.34375 C 77.925781 24.058594 76.605469 25.546875 74.222656 25.546875 L 73.09375 25.546875 L 73.09375 17.074219 L 74.640625 17.300781 C 75.476562 17.429688 76.410156 17.65625 76.699219 17.820312 Z M 76.699219 17.820312 "/>
<path style=" stroke:none;fill-rule:nonzero;fill:rgb(0%,0%,0%);fill-opacity:1;" d="M 81.144531 19.242188 C 81.144531 21.730469 81.046875 22.3125 80.660156 22.3125 C 80.082031 22.3125 79.210938 23.960938 77.441406 28.585938 C 75.507812 33.632812 75.285156 34.503906 75.894531 34.765625 C 76.507812 34.988281 76.378906 35.121094 77.375 33.113281 C 78.246094 31.402344 79.984375 29.621094 80.628906 29.847656 C 81.5 30.140625 81.144531 31.042969 79.886719 31.691406 C 79.148438 32.046875 78.566406 32.433594 78.566406 32.53125 C 78.566406 32.628906 78.792969 33.113281 79.050781 33.632812 C 79.953125 35.347656 81.242188 35.539062 82.433594 34.117188 C 82.980469 33.4375 82.65625 33.179688 81.789062 33.632812 C 81.273438 33.921875 80.984375 33.921875 80.628906 33.597656 C 79.886719 32.984375 80.113281 32.242188 81.242188 31.53125 C 82.527344 30.722656 82.882812 28.976562 81.820312 28.621094 C 81.015625 28.359375 80.015625 28.847656 78.664062 30.171875 C 78.085938 30.722656 77.601562 31.078125 77.601562 31.011719 C 77.601562 30.011719 80.46875 23.285156 80.855469 23.285156 C 81.015625 23.285156 81.144531 23.996094 81.144531 24.902344 L 81.144531 26.515625 L 84.363281 26.515625 C 87.003906 26.515625 87.585938 26.421875 87.585938 26.03125 C 87.585938 25.644531 87.070312 25.546875 84.847656 25.546875 L 82.109375 25.546875 L 82.109375 21.667969 L 84.6875 21.667969 C 86.746094 21.667969 87.261719 21.570312 87.261719 21.179688 C 87.261719 20.792969 86.746094 20.695312 84.652344 20.695312 L 82.078125 20.695312 L 82.175781 18.984375 L 82.269531 17.300781 L 84.945312 17.203125 C 87.003906 17.140625 87.585938 17.011719 87.585938 16.652344 C 87.585938 16.265625 86.972656 16.167969 84.363281 16.167969 L 81.144531 16.167969 Z M 81.144531 19.242188 "/>
<path style=" stroke:none;fill-rule:nonzero;fill:rgb(0%,0%,0%);fill-opacity:1;" d="M 91.15625 16.621094 C 89.804688 17.367188 89.453125 19.175781 90.417969 20.375 C 90.707031 20.761719 91.996094 21.40625 93.21875 21.796875 C 95.054688 22.378906 95.539062 22.703125 95.761719 23.378906 C 96.246094 24.707031 95.3125 25.546875 93.316406 25.546875 C 92.027344 25.546875 91.609375 25.386719 90.933594 24.675781 C 90 23.640625 89.324219 23.996094 89.933594 25.222656 C 90.417969 26.226562 92.640625 27.003906 94.152344 26.710938 C 95.957031 26.355469 96.921875 25.386719 96.921875 23.929688 C 96.921875 22.378906 96.050781 21.472656 94.183594 21.019531 C 92.058594 20.46875 91.285156 19.953125 91.191406 18.917969 C 90.964844 17.074219 93.667969 16.429688 95.183594 17.949219 C 95.632812 18.402344 96.117188 18.757812 96.277344 18.757812 C 96.921875 18.757812 96.566406 17.496094 95.761719 16.847656 C 94.765625 16.039062 92.382812 15.941406 91.15625 16.621094 Z M 91.15625 16.621094 "/>
<path style=" stroke:none;fill-rule:nonzero;fill:rgb(0%,0%,0%);fill-opacity:1;" d="M 100.175781 16.621094 C 98.820312 17.367188 98.46875 19.175781 99.433594 20.375 C 99.722656 20.761719 101.011719 21.40625 102.234375 21.796875 C 104.070312 22.378906 104.554688 22.703125 104.777344 23.378906 C 105.261719 24.707031 104.328125 25.546875 102.332031 25.546875 C 101.042969 25.546875 100.625 25.386719 99.949219 24.675781 C 99.015625 23.640625 98.339844 23.996094 98.949219 25.222656 C 99.433594 26.226562 101.65625 27.003906 103.167969 26.710938 C 104.972656 26.355469 105.9375 25.386719 105.9375 23.929688 C 105.9375 22.378906 105.070312 21.472656 103.199219 21.019531 C 101.074219 20.46875 100.304688 19.953125 100.207031 18.917969 C 99.980469 17.074219 102.6875 16.429688 104.199219 17.949219 C 104.648438 18.402344 105.132812 18.757812 105.292969 18.757812 C 105.9375 18.757812 105.582031 17.496094 104.777344 16.847656 C 103.78125 16.039062 101.398438 15.941406 100.175781 16.621094 Z M 100.175781 16.621094 "/>
<path style=" stroke:none;fill-rule:nonzero;fill:rgb(0%,0%,0%);fill-opacity:1;" d="M 108.09375 16.394531 C 107.964844 16.492188 107.871094 18.820312 107.871094 21.570312 L 107.871094 26.515625 L 111.25 26.515625 C 114.050781 26.515625 114.632812 26.421875 114.632812 26.03125 C 114.632812 25.644531 114.117188 25.546875 111.894531 25.546875 L 109.15625 25.546875 L 109.15625 21.699219 L 111.636719 21.601562 C 113.246094 21.539062 114.148438 21.375 114.246094 21.085938 C 114.34375 20.792969 113.699219 20.695312 111.765625 20.695312 L 109.15625 20.695312 L 109.15625 17.140625 L 111.894531 17.140625 C 114.117188 17.140625 114.632812 17.042969 114.632812 16.652344 C 114.632812 16.265625 114.050781 16.167969 111.476562 16.167969 C 109.738281 16.167969 108.191406 16.265625 108.09375 16.394531 Z M 108.09375 16.394531 "/>
<path style=" stroke:none;fill-rule:nonzero;fill:rgb(0%,0%,0%);fill-opacity:1;" d="M 117.144531 16.363281 C 116.984375 16.492188 116.886719 18.820312 116.886719 21.570312 C 116.886719 26.292969 116.917969 26.515625 117.53125 26.515625 C 118.109375 26.515625 118.175781 26.292969 118.175781 24.578125 L 118.175781 22.636719 L 119.398438 22.636719 C 120.589844 22.636719 120.652344 22.703125 121.554688 24.578125 C 122.199219 25.902344 122.648438 26.515625 123.070312 26.515625 C 123.582031 26.515625 123.550781 26.324219 122.683594 24.578125 C 121.554688 22.378906 121.554688 22.3125 122.167969 22.3125 C 123.582031 22.3125 124.195312 18.53125 123.035156 17.105469 C 122.519531 16.429688 122.070312 16.332031 119.878906 16.234375 C 118.496094 16.167969 117.273438 16.234375 117.144531 16.363281 Z M 122.296875 18.011719 C 122.84375 18.757812 122.777344 20.535156 122.167969 21.050781 C 121.910156 21.277344 120.878906 21.503906 119.914062 21.601562 L 118.175781 21.730469 L 118.175781 17.042969 L 120.042969 17.269531 C 121.167969 17.398438 122.039062 17.6875 122.296875 18.011719 Z M 122.296875 18.011719 "/>
<path style=" stroke:none;fill-rule:nonzero;fill:rgb(0%,0%,0%);fill-opacity:1;" d="M 125.578125 16.652344 C 125.578125 17.011719 125.964844 17.140625 127.027344 17.140625 L 128.445312 17.140625 L 128.542969 21.730469 C 128.640625 25.839844 128.703125 26.355469 129.21875 26.453125 C 129.734375 26.550781 129.765625 26.160156 129.765625 21.859375 L 129.765625 17.140625 L 131.375 17.140625 C 132.597656 17.140625 132.984375 17.011719 132.984375 16.652344 C 132.984375 16.265625 132.375 16.167969 129.28125 16.167969 C 126.191406 16.167969 125.578125 16.265625 125.578125 16.652344 Z M 125.578125 16.652344 "/>
<path style=" stroke:none;fill-rule:nonzero;fill:rgb(0%,0%,0%);fill-opacity:1;" d="M 135.753906 16.847656 C 135.109375 17.367188 134.917969 17.785156 134.917969 18.757812 C 134.917969 20.277344 135.820312 21.117188 138.234375 21.828125 C 140.261719 22.441406 140.714844 22.832031 140.714844 23.960938 C 140.714844 25.09375 139.941406 25.546875 138.007812 25.546875 C 136.851562 25.546875 136.464844 25.386719 135.949219 24.738281 C 135.175781 23.734375 134.53125 23.703125 134.660156 24.609375 C 134.820312 25.804688 136.335938 26.648438 138.265625 26.648438 C 140.425781 26.648438 141.582031 25.933594 141.875 24.414062 C 142.164062 22.863281 141.421875 21.859375 139.523438 21.179688 C 138.683594 20.890625 137.589844 20.46875 137.074219 20.308594 C 136.558594 20.082031 136.109375 19.628906 135.980469 19.144531 C 135.53125 17.300781 138.75 16.363281 140.199219 17.949219 C 141.324219 19.144531 142.003906 18.984375 141.488281 17.625 C 140.90625 16.167969 137.269531 15.652344 135.753906 16.847656 Z M 135.753906 16.847656 "/>
<path style=" stroke:none;fill-rule:nonzero;fill:rgb(0%,0%,0%);fill-opacity:1;" d="M 90.0625 30.625 C 88.9375 34.117188 88.871094 34.539062 89.355469 34.730469 C 89.644531 34.828125 90.160156 34.214844 90.804688 33.082031 C 91.964844 31.011719 93.121094 29.75 93.863281 29.75 C 94.476562 29.75 94.476562 30.722656 93.863281 32.792969 C 93.058594 35.476562 93.925781 35.765625 95.183594 33.210938 C 96.179688 31.175781 97.46875 29.75 98.273438 29.75 C 98.984375 29.75 99.046875 30.851562 98.371094 32.015625 C 97.40625 33.730469 98.082031 35.378906 99.433594 34.632812 C 100.304688 34.148438 101.171875 33.082031 100.851562 32.855469 C 100.6875 32.757812 100.367188 32.886719 100.140625 33.148438 C 99.175781 34.3125 98.820312 33.050781 99.625 31.433594 C 100.433594 29.847656 100.496094 29.203125 99.980469 28.652344 C 99.273438 27.941406 98.015625 28.457031 96.503906 30.171875 C 95.246094 31.53125 95.214844 31.53125 95.796875 29.460938 C 95.890625 29.136719 95.761719 28.714844 95.503906 28.488281 C 94.828125 27.90625 93.667969 28.523438 92.15625 30.269531 C 90.738281 31.851562 90.546875 31.722656 91.285156 29.589844 C 91.867188 28.003906 91.867188 28.132812 91.320312 28.132812 C 91.03125 28.132812 90.546875 29.070312 90.0625 30.625 Z M 90.0625 30.625 "/>
<path style=" stroke:none;fill-rule:nonzero;fill:rgb(0%,0%,0%);fill-opacity:1;" d="M 86.457031 28.8125 C 84.136719 29.492188 82.5625 32.824219 83.882812 34.277344 C 85.457031 36.023438 88.550781 34.214844 88.550781 31.5625 C 88.550781 30.074219 88.390625 29.71875 87.777344 29.945312 C 87.550781 30.042969 87.457031 30.527344 87.519531 31.175781 C 87.710938 32.726562 87.101562 33.695312 86.039062 33.566406 C 85.425781 33.503906 85.074219 33.210938 84.878906 32.597656 C 84.429688 31.304688 85.074219 30.140625 86.617188 29.492188 C 87.328125 29.203125 87.90625 28.847656 87.90625 28.683594 C 87.90625 28.425781 87.746094 28.425781 86.457031 28.8125 Z M 86.457031 28.8125 "/>
<path style=" stroke:none;fill-rule:nonzero;fill:rgb(0%,0%,0%);fill-opacity:1;" d="M 105.101562 29.136719 C 102.621094 30.332031 101.171875 32.566406 101.816406 34.246094 C 102.042969 34.925781 102.234375 34.988281 103.265625 34.828125 C 103.910156 34.699219 104.84375 34.214844 105.359375 33.761719 L 106.261719 32.855469 L 106.261719 33.730469 C 106.261719 34.828125 107.066406 35.183594 108.128906 34.570312 C 109.285156 33.921875 109.449219 33.210938 108.386719 33.503906 C 107.675781 33.664062 107.546875 33.597656 107.546875 33.015625 C 107.546875 32.628906 107.773438 31.886719 108.03125 31.367188 C 108.578125 30.300781 108.03125 29.558594 107.453125 30.59375 C 106.808594 31.757812 104.714844 33.632812 104.070312 33.632812 C 103.136719 33.632812 102.847656 32.5 103.523438 31.496094 C 104.136719 30.527344 105.746094 29.492188 107 29.203125 C 107.484375 29.105469 107.871094 28.910156 107.871094 28.75 C 107.871094 28.265625 106.484375 28.457031 105.101562 29.136719 Z M 105.101562 29.136719 "/>
<path style=" stroke:none;fill-rule:nonzero;fill:rgb(0%,0%,0%);fill-opacity:1;" d="M 73.253906 33.957031 C 72.996094 34.40625 73.351562 34.925781 73.929688 34.925781 C 74.1875 34.925781 74.382812 34.632812 74.382812 34.277344 C 74.382812 33.597656 73.609375 33.375 73.253906 33.957031 Z M 73.253906 33.957031 "/>
</g>
</svg>
